<svg xmlns="http://www.w3.org/2000/svg" xmlns:xlink="http://www.w3.org/1999/xlink" width="500" zoomAndPan="magnify" viewBox="0 0 375 374.999991" height="500" preserveAspectRatio="xMidYMid meet" version="1.0"><defs><g/><clipPath id="250725c3d5"><path d="M 37.5 322.777344 L 275.207031 322.777344 L 275.207031 352.222656 L 37.5 352.222656 Z M 37.5 322.777344 " clip-rule="nonzero"/></clipPath></defs><g fill="#000000" fill-opacity="1"><g transform="translate(88.152823, 255.076418)"><g><path d="M 87.457031 -2.054688 L 43.453125 -53.871094 L 87.042969 -107.605469 C 88.003906 -108.566406 87.320312 -109.660156 85.808594 -109.660156 L 63.46875 -109.660156 C 63.191406 -109.660156 62.371094 -109.386719 62.234375 -109.25 L 20.972656 -58.53125 L 20.972656 -108.429688 C 20.972656 -108.976562 20.425781 -109.660156 19.601562 -109.660156 L 1.507812 -109.660156 C 0.683594 -109.660156 0 -108.976562 0 -108.429688 L 0 -6.71875 C 0 -6.71875 26.730469 -37.011719 29.472656 -39.890625 L 61.410156 -0.410156 C 61.546875 -0.273438 62.371094 0 62.644531 0 L 86.222656 0 C 87.59375 0 88.277344 -0.960938 87.457031 -2.054688 Z M 87.457031 -2.054688 "/></g></g></g><g fill="#000000" fill-opacity="1"><g transform="translate(187.493225, 255.076418)"><g><path d="M 87.457031 -2.054688 L 43.453125 -53.871094 L 87.042969 -107.605469 C 88.003906 -108.566406 87.320312 -109.660156 85.808594 -109.660156 L 63.46875 -109.660156 C 63.191406 -109.660156 62.371094 -109.386719 62.234375 -109.25 L 20.972656 -58.53125 L 20.972656 -108.429688 C 20.972656 -108.976562 20.425781 -109.660156 19.601562 -109.660156 L 1.507812 -109.660156 C 0.683594 -109.660156 0 -108.976562 0 -108.429688 L 0 -6.71875 C 0 -6.71875 26.730469 -37.011719 29.472656 -39.890625 L 61.410156 -0.410156 C 61.546875 -0.273438 62.371094 0 62.644531 0 L 86.222656 0 C 87.59375 0 88.277344 -0.960938 87.457031 -2.054688 Z M 87.457031 -2.054688 "/></g></g></g><g clip-path="url(#250725c3d5)"><path fill="#ffffff" d="M 37.5 322.777344 L 275.390625 322.777344 L 275.390625 352.074219 L 37.5 352.074219 Z M 37.5 322.777344 " fill-opacity="1" fill-rule="nonzero"/></g></svg>