<svg xmlns="http://www.w3.org/2000/svg" viewBox="0 0 48 48"><title>06-browser</title><g id="_06-browser" data-name="06-browser"><path d="M45,40H3a3,3,0,0,1-3-3V11A3,3,0,0,1,3,8H6v2H3a1,1,0,0,0-1,1V37a1,1,0,0,0,1,1H45a1,1,0,0,0,1-1V11a1,1,0,0,0-1-1H32V8H45a3,3,0,0,1,3,3V37A3,3,0,0,1,45,40Z"/><rect x="15" y="39" width="2" height="4"/><path d="M13,47H11V45a3,3,0,0,1,3-3H24v2H14a1,1,0,0,0-1,1Z"/><rect x="31" y="39" width="2" height="4"/><path d="M37,47H35V45a1,1,0,0,0-1-1H29V42h5a3,3,0,0,1,3,3Z"/><rect x="9" y="46" width="30" height="2"/><rect x="1" y="30" width="13" height="2"/><rect x="42" y="30" width="5" height="2"/><path d="M14,24H8a3,3,0,0,1-3-3V3A3,3,0,0,1,8,0H30a3,3,0,0,1,3,3V14H31V3a1,1,0,0,0-1-1H8A1,1,0,0,0,7,3V21a1,1,0,0,0,1,1h6Z"/><path d="M40,35H16a3,3,0,0,1-3-3V16a3,3,0,0,1,3-3H40a3,3,0,0,1,3,3V32A3,3,0,0,1,40,35ZM16,15a1,1,0,0,0-1,1V32a1,1,0,0,0,1,1H40a1,1,0,0,0,1-1V16a1,1,0,0,0-1-1Z"/><rect x="14" y="19" width="28" height="2"/><rect x="17" y="16" width="2" height="2"/><rect x="21" y="16" width="2" height="2"/><rect x="25" y="16" width="2" height="2"/><rect x="9" y="3" width="2" height="2"/><rect x="13" y="3" width="2" height="2"/><rect x="17" y="3" width="2" height="2"/><rect x="6" y="6" width="26" height="2"/><rect x="17" y="24" width="2" height="2"/><rect x="21" y="24" width="14" height="2"/><rect x="23" y="28" width="2" height="2"/><rect x="17" y="28" width="4" height="2"/><rect x="27" y="28" width="12" height="2"/><rect x="37" y="24" width="2" height="2"/><path d="M11,15H9V11a1,1,0,0,1,1-1h4v2H11Z"/><rect x="4" y="34" width="2" height="2"/><rect x="8" y="34" width="2" height="2"/></g></svg>